<?xml version="1.0" encoding="UTF-8" standalone="no"?>
<svg
   xmlns:dc="http://purl.org/dc/elements/1.1/"
   xmlns:cc="http://creativecommons.org/ns#"
   xmlns:rdf="http://www.w3.org/1999/02/22-rdf-syntax-ns#"
   xmlns:svg="http://www.w3.org/2000/svg"
   xmlns="http://www.w3.org/2000/svg"
   xmlns:sodipodi="http://sodipodi.sourceforge.net/DTD/sodipodi-0.dtd"
   xmlns:inkscape="http://www.inkscape.org/namespaces/inkscape"
   inkscape:version="1.0 (4035a4fb49, 2020-05-01)"
   height="46.502365"
   width="51.988209"
   sodipodi:docname="InternalService.svg"
   xml:space="preserve"
   viewBox="0 0 51.988208 46.502366"
   y="0px"
   x="0px"
   id="Layer_1"
   version="1.0"><metadata
   id="metadata849"><rdf:RDF><cc:Work
       rdf:about=""><dc:format>image/svg+xml</dc:format><dc:type
         rdf:resource="http://purl.org/dc/dcmitype/StillImage" /><dc:title></dc:title></cc:Work></rdf:RDF></metadata><defs
   id="defs847" /><sodipodi:namedview
   inkscape:current-layer="Layer_1"
   inkscape:window-maximized="1"
   inkscape:window-y="-8"
   inkscape:window-x="1592"
   inkscape:cy="24.330068"
   inkscape:cx="25.993207"
   inkscape:zoom="5.9458977"
   showgrid="false"
   id="namedview845"
   inkscape:window-height="1017"
   inkscape:window-width="1920"
   inkscape:pageshadow="2"
   inkscape:pageopacity="0"
   guidetolerance="10"
   gridtolerance="10"
   objecttolerance="10"
   borderopacity="1"
   bordercolor="#666666"
   pagecolor="#ffffff" />
<path
   style="fill:#ffffff"
   d="m 49.388207,6.0023669 c -0.6,-1 -6.7,-3.9 -15.6,-5.70000004 -3.6,4.00000004 -3.6,5.60000004 -3.7,6.20000004 -0.1,0.6 1.2,2.3 2.5,4.0000001 2.4,3.2 3.1,3.8 3.5,4.8 0.7,1.7 -0.5,5.9 -1.3,9.6 0,-0.1 -2.2,-8.1 -3.1,-13.2 -0.1,-0.5 0,-0.7 0,-0.7 -5.4,-0.5 -9.1,-0.7 -9.7,2.1 -2.5,0 -3.7,0.7 -4,1.2 -0.6,1.1 0.1,3.3 0.6,4.4 0.4,-0.9 2.5,-0.7 3.2,-0.7 0.4,0.1 0.4,0.2 0.5,0.5 v 10.7 h -6.5 l -5.5,15.1 c 2.5,1.2 5.3,2.2 7,2.2 1.7,0 5.9,-2.2 6.5,-2.2 0.5,0 4.7,2.2 6.4,2.2 1.7,0 4.4,-0.9 7,-2.2 l -5.5,-15.1 h -6.5 v -10.3 c -0.1,-0.6 -0.4,-0.9 -0.6,-0.9 l 3.2,-0.1 c -0.5,-1.8 -1.1,-3.2 -2,-3.3 0.2,-0.4 0.5,-0.6 0.8,-0.9 h -2.5 c 0.2,-1.3 3.5,-0.9 4.9,-0.7 1.4,7.2 4.2,17 4.3,17.1 0.1,0.1 2.4,1 2.6,1.1 1.3,-2.9 3.4,-11.5 3.5,-13.6 1.7,0.6 1.1,2.8 0.7,5.1 -1.9,11.7 -3.5,15.3 -3.8,17.5 1.7,-0.4 2.6,-0.7 2.9,-0.9 0.2,-0.4 1,-2.3 1.7,-4.5 1,-3.2 2.5,-11.2 2.5,-14.4 0,-0.7 -0.7,-1.6 -1.8,-2.1 0,0 0.6,-1 0.8,-1.7 0.4,-0.7 0.7,-2.2 0.7,-2.2 0.7,0.2 1.2,0.5 1.3,1.2 0.4,3.1 0.2,3.3 -0.2,9 0,1.7 -0.7,5.4 -1.3,9.2 -1.2,6.8 -2.4,9.8 -2.4,10.9 1.8,-0.6 3.2,-1.1 3.4,-1.3 0.1,-0.2 1.4,-3.5 2.4,-8.6 0.4,-2.2 0.6,-4.3 1,-6.5 0.5,-2.9 0.6,-6 0.6,-8.4 0,-3.7 0.5,-3.7 -2.3,-5.1 1.1,-2.9 0.8,-4.9000001 0.6,-5.5000001 -0.5,-1 -1,-1 -3.4,-0.9 0.8,0.9 0.6,2.4000001 0.4,3.4000001 -0.5,-0.4 -0.2,-1.1 -2.8,-1 -0.4,-4.2000001 -1.2,-4.6000001 -1.2,-4.8000001 -0.4,-0.5 -2.5,-0.2 -3.1,0 0.5,0.4 1.4,3.5 1,4.9000001 -0.2,-0.4 -3.8,-4.5000001 -3.6,-5.3000001 0.2,-0.5 0.5,-1 1.7,-2.4 4.2,0.9 11.3,3.5 11.8,4.3 0.4,1 0.8,2.1 1.1,3.7000001 0.4,2.4 1.1,8.1 0.7,16.7 -0.4,9 -1.6,14 -1.4,13.8 1.3,-0.4 3.4,-2.4 3.6,-2.9 0.6,-1.5 0.8,-6.7 1,-11.5 -0.1,-4.7 -0.6,-10.7 -0.8,-13 -0.7,-5.6000001 -1.1,-7.1000001 -1.8,-8.3000001 z m -32.2,37.4000001 c -1.3,0 -3.2,-0.2 -3.2,-0.2 l 3.2,-9.5 3,9.5 c 0,-0.1 -1.8,0.2 -3,0.2 z m 16.1,-0.3 c 0,0 -1.9,0.2 -3.2,0.2 -1.1,0 -3,-0.2 -3,-0.2 l 3,-9.5 z m -8.3,-7.3 v -3.7 h 2.8 l -4.2,11.8 -4.2,-11.7 h 2.8 v 2.6 c 0,0 0,0.2 0.1,0.2 0.4,0.2 0.5,0.2 0.5,0.2 z m 0.3,-19.3 h -4.8 c -0.4,-1.2 0,-1.5 1.1,-1.6 1.9,-0.1 3.6,-0.1 3.7,1.6 z m 13.7,-5.2 c 1.7,-0.2 1,2.9 0.5,4.2 -0.7,-1.5 -1.2,-2.4 -2.3,-3.8 0.6,-0.3 1.1,-0.3 1.8,-0.4 z"
   id="path12" />
<path
   style="fill:#ffffff"
   d="m 7.6882072,37.702367 c 0.8,-1 3.7999998,-4 4.2999998,-5.7 0.5,-2 1,-6.8 1,-7.9 0,0 -2.9999998,2.1 -4.4999998,3.7 -0.7,0.7 -1.6,2 -1.6,2 -0.4,-1.7 0.1,-3.7 0.8,-4.8 1,-1.7 4.5999998,-4.8 5.0999998,-6.1 0.8,-2.1 0.7,-3.9 1.3,-6.1 -2.4,0.9 -5.3999998,2.7 -6.8999998,4.3 -0.1,-2.4 0.6,-4.2 2.2,-5.4 2.2999998,-1.8000001 5.3999998,-2.8000001 7.2999998,-3.4000001 1.7,-0.5 4.5,-1 5.8,-1.7 2.5,-1.2 4.9,-4.8 5.5,-6.60000004 -0.8,0 -3.8,-0.1 -6.7,1.00000004 -1.1,0.5 -1.6,1.5 -2,2.3 -0.5,0.7 -1,1.5 -1.4,2.1 -1.2,1.8 -2.6,2.7 -4.4,3.2 0,-0.1 1.2,-0.9 2,-2.7 0.7,-1.6 1.6,-4.6 1.6,-4.9 -1.6,0.2 -2.5,0.7 -4.2,1.3 -1.7,0.7 -2.3,1.5 -2.6,2.2 -1.1999998,1.8 -0.7999998,7.0000001 -3.1999998,8.9000001 0.1,-2.7 0.7,-5.6000001 -0.2,-8.9000001 -4.8,2 -5.8,3.7 -5.4,5.7000001 0.5,2.8 3.5,4 4.8,6.4 0.5,0.7 0.6,1.7 0.6,1.7 0.1,0 -1,1.3 -0.6,4 0,0 -1,-2 -1.9,-3.2 -1.4,-1.8 -4.19999998,-4.8 -4.19999998,-4.8 -0.6,7.5 0.4,9 0.7,9.6 0.99999998,1.6 4.39999998,4 5.19999998,5.6 0.4,0.7 0.5,1 0.5,1 0.1,0.2 -0.7,1.2 -0.6,2.6 0.1,0.5 0.2,1 0.4,1.7 0,0 -1.1,-1.6 -2.5,-3.2 -1.2,-1.5 -3.69999998,-3.3 -3.79999998,-3.3 -0.1,0.9 0.4,5 0.5,5.7 0.2,2.1 0.4,4 2.19999998,5.9 1.4,1.5 6.3,3.5 7.2999998,3.9 0,0 -0.1999998,-1 -0.6999998,-2.3 -0.9,-1.5 -1.7,-3.8 -1.7,-3.8 z"
   id="path14" />
<text
   id="text861"
   y="-34.982101"
   x="71.982399"
   style="font-style:normal;font-weight:normal;font-size:40px;line-height:1.25;font-family:sans-serif;fill:#000000;fill-opacity:1;stroke:none"
   xml:space="preserve"><tspan
     y="-34.982101"
     x="71.982399"
     id="tspan859"
     sodipodi:role="line" /></text></svg>
